<svg width="20" height="17" viewBox="0 0 20 17" fill="none" xmlns="http://www.w3.org/2000/svg">
<rect x="18.3429" y="15.5454" width="17.3429" height="13.1725" rx="1.60363" transform="rotate(-180 18.3429 15.5454)" stroke="#454BD8" stroke-width="2"/>
<path d="M10.49 9.61742C10.49 9.79716 10.6357 9.94287 10.8154 9.94287H12.3296C12.5093 9.94287 12.655 10.0886 12.655 10.2683V11.2541C12.655 11.4339 12.5093 11.5796 12.3296 11.5796H10.8154C10.6357 11.5796 10.49 11.7253 10.49 11.905V13.4182C10.49 13.5979 10.3443 13.7437 10.1645 13.7437H9.17873C8.99898 13.7437 8.85327 13.5979 8.85327 13.4182V11.905C8.85327 11.7253 8.70756 11.5796 8.52782 11.5796H7.01369C6.83394 11.5796 6.68823 11.4339 6.68823 11.2541V10.2683C6.68823 10.0886 6.83394 9.94287 7.01369 9.94287H8.52782C8.70756 9.94287 8.85327 9.79716 8.85327 9.61742V8.10329C8.85327 7.92354 8.99898 7.77783 9.17873 7.77783H10.1645C10.3443 7.77783 10.49 7.92354 10.49 8.10329V9.61742Z" fill="#454BD8"/>
<mask id="path-3-inside-1_1015_449" fill="white">
<rect x="5.16339" width="1.52484" height="2.74609" rx="0.325454"/>
</mask>
<rect x="5.16339" width="1.52484" height="2.74609" rx="0.325454" fill="#454BD8" stroke="#454BD8" stroke-width="1.52484" mask="url(#path-3-inside-1_1015_449)"/>
<mask id="path-4-inside-2_1015_449" fill="white">
<rect x="12.655" width="1.52484" height="2.74609" rx="0.325454"/>
</mask>
<rect x="12.655" width="1.52484" height="2.74609" rx="0.325454" fill="#454BD8" stroke="#454BD8" stroke-width="1.52484" mask="url(#path-4-inside-2_1015_449)"/>
<line y1="5.57798" x2="18.7389" y2="5.57798" stroke="#454BD8" stroke-width="1.35284"/>
</svg>
