<svg width="16" height="17" viewBox="0 0 16 17" fill="none" xmlns="http://www.w3.org/2000/svg">
<circle cx="7.58355" cy="5.55694" r="4.55694" fill="white" stroke="#454BD8" stroke-width="2"/>
<mask id="path-2-inside-1_1005_113" fill="white">
<path d="M7.58325 9.6543C11.7715 9.6543 15.1672 12.8796 15.1672 16.8584H0.000244141C0.000244141 12.8797 3.39523 9.65455 7.58325 9.6543Z"/>
</mask>
<path d="M7.58325 9.6543C11.7715 9.6543 15.1672 12.8796 15.1672 16.8584H0.000244141C0.000244141 12.8797 3.39523 9.65455 7.58325 9.6543Z" fill="white"/>
<path d="M7.58325 9.6543V7.6543H7.58313L7.58325 9.6543ZM15.1672 16.8584V18.8584H17.1672V16.8584H15.1672ZM0.000244141 16.8584H-1.99976V18.8584H0.000244141V16.8584ZM7.58325 9.6543V11.6543C10.7651 11.6543 13.1672 14.0798 13.1672 16.8584H15.1672H17.1672C17.1672 11.6793 12.7779 7.6543 7.58325 7.6543V9.6543ZM15.1672 16.8584V14.8584H0.000244141V16.8584V18.8584H15.1672V16.8584ZM0.000244141 16.8584H2.00024C2.00024 14.0797 4.40189 11.6545 7.58337 11.6543L7.58325 9.6543L7.58313 7.6543C2.38857 7.65461 -1.99976 11.6797 -1.99976 16.8584H0.000244141Z" fill="#454BD8" mask="url(#path-2-inside-1_1005_113)"/>
</svg>
